{
  "asset": {
    "generator": "gltfeditor.com",
    "version": "2.0"
  },
  "buffers": [
    {
      "uri": "data:application/octet-stream;base64,",
      "byteLength": 168512
    }
  ],
  "bufferViews": [
    {
      "buffer": 0,
      "byteOffset": 9916,
      "byteLength": 158592,
      "target": 34962,
      "byteStride": 32
    },
    {
      "buffer": 0,
      "byteOffset": 0,
      "byteLength": 9912,
      "target": 34963
    }
  ],
  "accessors": [
    {
      "bufferView": 0,
      "byteOffset": 0,
      "componentType": 5126,
      "normalized": false,
      "count": 4553,
      "max": [
        28.42519760131836,
        13.051180839538574,
        23.740449905395508
      ],
      "min": [
        -28.34645652770996,
        -13.051180839538574,
        -8.987855591887067e-15
      ],
      "type": "VEC3"
    },
    {
      "bufferView": 0,
      "byteOffset": 12,
      "componentType": 5126,
      "normalized": false,
      "count": 4553,
      "max": [
        144.1999969482422,
        142.10000610351562
      ],
      "min": [
        -72,
        -60.300743103027344
      ],
      "type": "VEC2"
    },
    {
      "bufferView": 0,
      "byteOffset": 20,
      "componentType": 5126,
      "normalized": false,
      "count": 4553,
      "max": [
        1.0000044107437134,
        1.0000044107437134,
        1.0000044107437134
      ],
      "min": [
        -1.0000044107437134,
        -1.0000044107437134,
        -1.0000044107437134
      ],
      "type": "VEC3"
    },
    {
      "bufferView": 1,
      "byteOffset": 0,
      "componentType": 5123,
      "normalized": false,
      "count": 4956,
      "max": [
        4552
      ],
      "min": [
        0
      ],
      "type": "SCALAR"
    }
  ],
  "scene": 0,
  "scenes": [
    {
      "nodes": [
        0
      ],
      "name": "6"
    }
  ],
  "nodes": [
    {
      "name": "INPUT-13|:|B8A4396250C5687B1D31E70758B30729E1AC4426",
      "mesh": 0
    }
  ],
  "meshes": [
    {
      "primitives": [
        {
          "attributes": {
            "POSITION": 0,
            "TEXCOORD_0": 1,
            "NORMAL": 2
          },
          "material": 0,
          "mode": 4,
          "indices": 3
        }
      ]
    }
  ],
  "materials": [
    {
      "pbrMetallicRoughness": {
        "baseColorFactor": [
          1,
          1,
          1,
          1
        ],
        "metallicFactor": 1,
        "roughnessFactor": 1
      },
      "emissiveFactor": [
        0,
        0,
        0
      ],
      "alphaMode": "OPAQUE",
      "doubleSided": false
    }
  ]
}