{"accessors" : [{"bufferView" : 0, "byteOffset" : 0, "componentType" : 5125, "count" : 85167, "type" : "SCALAR", "max" : [83045], "min" : [0]}, {"bufferView" : 1, "byteOffset" : 0, "componentType" : 5126, "count" : 83046, "type" : "VEC3", "max" : [28.742856979370117, 13.23914909362793, 25.783674240112305], "min" : [-29.8983154296875, -25.152910232543945, -40.26072692871094], "name" : "POSITION"}, {"bufferView" : 1, "byteOffset" : 12, "componentType" : 5126, "count" : 83046, "type" : "VEC3", "max" : [0.9999967813491821, 1.000003695487976, 1.0000044107437134], "min" : [-0.9999960660934448, -1.000002384185791, -1.0000030994415283], "name" : "NORMAL"}], "asset" : {"generator" : "Aspose.3D 22.1", "version" : "2.0"}, "buffers" : [{"uri" : "data:application/octet-stream;base64,", "byteLength" : 2384684}], "bufferViews" : [{"buffer" : 0, "byteOffset" : 0, "byteLength" : 340668, "target" : 34963}, {"buffer" : 0, "byteOffset" : 340672, "byteLength" : 2044008, "byteStride" : 24, "target" : 34962}], "meshes" : [{"primitives" : [{"attributes" : {"POSITION" : 1, "NORMAL" : 2}, "indices" : 0, "mode" : 4}], "name" : ""}], "nodes" : [{"mesh" : 0, "name" : "default1_default"}], "scene" : 0, "scenes" : [{"nodes" : [0]}]}